# xmcd CD database file
#
# Track frame offsets:
#	150
#	18083
#	29173
#	43480
#	54243
#	64845
#	76625
#	91870
#	107005
#	124540
#	135320
#	144558
#	159720
#	177035
#	188678
#	201343
#
# Disc length: 2879 seconds
#
# Revision: 8
# Processed by: cddbd v1.5.2PL0 Copyright (c) Steve Scherf et al.
# Submitted via: CDex 1.70beta2
#
DISCID=d00b3d10
DTITLE=Frank Sinatra - A Swingin' Affair!
DYEAR=1956
DGENRE=Jazz
TTITLE0=Night And Day
TTITLE1=I Wish I Were In Love Again
TTITLE2=I Got Plenty O' Nuttin'
TTITLE3=I Guess I'll Have To Change My Plans
TTITLE4=Nice Work If You Can Get It
TTITLE5=Stars Fell On Alabama
TTITLE6=No One Ever Tells You
TTITLE7=I Won't Dance
TTITLE8=Lonesome Road
TTITLE9=At Long Last Love
TTITLE10=You'd Be So Nice To Come Home To
TTITLE11=I Got It Bad And That Ain't Good
TTITLE12=From This Moment On
TTITLE13=If I Had You
TTITLE14=Oh! Look At Me Now
TTITLE15=The Lady Is A Tramp (Bonus Track)
EXTD=YEAR: 1956
EXTT0=
EXTT1=
EXTT2=
EXTT3=
EXTT4=
EXTT5=
EXTT6=
EXTT7=
EXTT8=
EXTT9=
EXTT10=
EXTT11=
EXTT12=
EXTT13=
EXTT14=
EXTT15=
PLAYORDER=
